<svg width="92" height="92" viewBox="0 0 92 92" fill="none" xmlns="http://www.w3.org/2000/svg">
<g clip-path="url(#clip0_633_975)">
<circle cx="46" cy="46" r="46" fill="#E0E0E9"/>
<path fill-rule="evenodd" clip-rule="evenodd" d="M50.6 36.2996V35.2667C50.6 32.7262 48.5405 30.6667 46 30.6667C43.4594 30.6667 41.4 32.7262 41.4 35.2667V36.2996C37.7737 38.0222 35.2666 41.7184 35.2666 46V46.1221C35.2666 46.7396 35.0838 47.3433 34.7413 47.857L32.8528 50.6898C32.4271 51.3283 32.2 52.0786 32.2 52.8461C32.2 54.993 33.9403 56.7334 36.0872 56.7334H38.9712C40.1543 59.4411 42.8561 61.3334 46 61.3334C49.1438 61.3334 51.8456 59.4411 53.0287 56.7334H55.9127C58.0596 56.7334 59.8 54.993 59.8 52.8461C59.8 52.0786 59.5728 51.3284 59.1471 50.6898L57.2586 47.857C56.9161 47.3433 56.7333 46.7396 56.7333 46.1221V46C56.7333 41.7183 54.2262 38.0222 50.6 36.2996ZM47.5333 35.2667C47.5333 34.4199 46.8468 33.7334 46 33.7334C45.1531 33.7334 44.4666 34.4199 44.4666 35.2667H47.5333ZM49.4286 56.7334H42.5713C43.4135 57.6744 44.6376 58.2667 46 58.2667C47.3623 58.2667 48.5864 57.6744 49.4286 56.7334ZM55.9127 53.6667C56.3659 53.6667 56.7333 53.2993 56.7333 52.8461C56.7333 52.6841 56.6853 52.5257 56.5955 52.3909L54.707 49.5581C54.0286 48.5406 53.6666 47.345 53.6666 46.1221V46C53.6666 41.7658 50.2341 38.3334 46 38.3334C41.7658 38.3334 38.3333 41.7658 38.3333 46V46.1221C38.3333 47.345 37.9713 48.5406 37.2929 49.5581L35.4044 52.3909C35.3146 52.5257 35.2666 52.6841 35.2666 52.8461C35.2666 53.2993 35.634 53.6667 36.0872 53.6667H55.9127Z" fill="#1C1C1F"/>
</g>
<defs>
<clipPath id="clip0_633_975">
<rect width="92" height="92" fill="white"/>
</clipPath>
</defs>
</svg>
