<svg width="24" height="24" viewBox="0 0 24 24" fill="none" xmlns="http://www.w3.org/2000/svg">
<path d="M23.1057 6.8597C22.8811 6.66281 22.6028 6.53746 22.3065 6.49971C22.0102 6.46196 21.7094 6.51354 21.4426 6.64782L17.0457 8.8397L13.2957 2.60626C13.1613 2.38322 12.9716 2.19871 12.7449 2.07062C12.5183 1.94253 12.2623 1.87521 12.0019 1.87521C11.7416 1.87521 11.4856 1.94253 11.2589 2.07062C11.0322 2.19871 10.8425 2.38322 10.7082 2.60626L6.95818 8.8397L2.56037 6.64876C2.29383 6.51561 1.99386 6.46433 1.69823 6.50136C1.4026 6.53839 1.12454 6.66209 0.899084 6.85687C0.673629 7.05165 0.510863 7.3088 0.431291 7.59591C0.351719 7.88303 0.358901 8.18728 0.451931 8.47032L3.92068 19.0969C3.97292 19.257 4.06044 19.4033 4.17678 19.5251C4.29312 19.6468 4.43531 19.7409 4.59286 19.8004C4.75041 19.8599 4.9193 19.8832 5.08708 19.8687C5.25486 19.8542 5.41724 19.8022 5.56224 19.7166C5.58474 19.7034 7.91162 18.375 12.0001 18.375C16.0885 18.375 18.4154 19.7053 18.4332 19.7156C18.5782 19.8024 18.7409 19.8554 18.9092 19.8706C19.0775 19.8859 19.247 19.863 19.4053 19.8037C19.5635 19.7445 19.7064 19.6503 19.8233 19.5283C19.9401 19.4062 20.028 19.2594 20.0804 19.0988L23.5491 8.47782C23.6449 8.19463 23.6538 7.88928 23.5748 7.60096C23.4958 7.31265 23.3324 7.05452 23.1057 6.8597ZM18.331 17.205C17.0794 16.725 14.9251 16.125 12.0001 16.125C9.07506 16.125 6.92068 16.7269 5.66912 17.2069L3.13787 9.45282L6.56256 11.1563C6.90291 11.3242 7.29384 11.3586 7.65827 11.2525C8.02271 11.1465 8.33419 10.9078 8.53131 10.5834L12.0001 4.81876L15.4688 10.5844C15.6659 10.9087 15.9775 11.1474 16.3419 11.2533C16.7064 11.3591 17.0973 11.3245 17.4376 11.1563L20.8613 9.45001L18.331 17.205Z" fill="#1D1B20"/>
</svg>
