<svg width="24" height="24" viewBox="0 0 24 24" fill="none" xmlns="http://www.w3.org/2000/svg">
<path d="M17.246 15.4784H21L18.6342 19.7414H14.45C12.6121 19.7414 11.8202 19.339 11.8006 18.1511C10.7057 19.3965 9.31748 20 7.61643 20C6.04247 20 4.82045 19.3678 3.93082 18.1032C3.07052 16.8196 2.80656 15.2006 3.13895 13.256C3.95037 8.63864 6.99076 6.34912 12.2699 6.34912H12.485L11.6051 10.4683H11.3412C9.90405 10.4683 8.92644 11.5221 8.64293 13.3997C8.42785 14.7312 9.00465 15.603 10.1289 15.603C11.2727 15.603 11.8984 14.7791 12.3481 12.7004L14.6455 2H20.169L17.246 15.4784Z" fill="#1D1B20"/>
</svg>
