<svg width="120" height="120" viewBox="0 0 120 120" fill="none" xmlns="http://www.w3.org/2000/svg">
<path d="M31.875 65.4375C32.0625 66.5625 32.25 67.6875 32.625 68.625C33.375 71.0625 36.9375 69.9375 36.1875 67.5C35.8125 66.375 35.625 65.0625 35.4375 64.125C35.4375 62.8125 34.5 61.875 33.1875 61.875C32.4375 61.875 31.6875 61.125 31.6875 60.375V52.125C31.6875 51.375 32.4375 50.625 33.1875 50.625C34.5 50.625 35.4375 49.6875 35.4375 48.5625C35.4375 47.25 35.8125 46.125 36 45C39 46.125 42 46.6875 45.375 46.6875C53.25 46.6875 60.75 43.3125 66 37.5C69.1875 41.0625 73.875 43.3125 78.75 43.3125C80.0625 43.3125 81.375 43.125 82.875 42.75C83.625 44.625 84 46.5 84.1875 48.5625C84.1875 49.875 85.125 50.8125 86.4375 50.8125C87.375 50.8125 88.125 51.375 88.125 52.3125V60.5625C88.125 61.3125 87.375 62.0625 86.625 62.0625C85.3125 62.0625 84.375 63 84.375 64.125C84.1875 65.625 84 66.9375 83.4375 68.25C82.5 70.875 86.0625 71.625 86.8125 69.5625C87.1875 68.4375 87.5625 67.125 87.75 65.625C90 65.0625 91.6875 63 91.6875 60.5625V52.3125C91.6875 49.875 90 47.8125 87.5625 47.25C87.1875 44.8125 86.625 40.3125 82.6875 34.875C79.6875 30.75 75.1875 27.5625 69.75 25.875C66.5625 24.9375 63.1875 24.5625 59.625 24.5625C57.375 24.5625 55.3125 24.75 53.25 25.125C52.3125 25.3125 51.5625 26.25 51.75 27.375C51.9375 28.3125 52.875 29.0625 54 28.875C55.875 28.5 57.75 28.5 59.625 28.5C62.8125 28.5 65.8125 28.875 68.625 29.8125C73.3125 31.3125 77.25 33.9375 79.6875 37.3125C80.25 38.0625 80.4375 38.4375 81 39.1875C79.875 39.375 79.6875 39.375 78.75 39.375C74.25 39.375 69.9375 36.9375 67.5 33.375C66.75 32.625 65.4375 32.0625 64.3125 33.375C59.8125 39.375 52.6875 42.9375 45.1875 42.9375C42.1875 42.9375 39.5625 42.375 36.9375 41.4375C38.625 37.3125 41.625 33.9375 45.375 31.6875C46.3125 31.125 46.5 30 46.125 29.0625C45.5625 28.125 44.4375 27.9375 43.5 28.3125C36.75 32.25 32.4375 39.1875 31.5 47.0625C29.25 47.625 27.5625 49.6875 27.5625 52.125V60.375C27.5625 60.375 27.75 64.5 31.875 65.4375ZM79.125 79.6875C78.1875 79.125 77.0625 79.5 76.5 80.4375L75 83.0625C72 88.5 66.1875 91.875 60 91.875C53.8125 91.875 48 88.5 44.8125 83.0625L43.125 80.0625C42.5625 79.125 41.4375 78.9375 40.5 79.3125C39.5625 79.875 39.375 81 39.75 81.9375L41.625 84.9375C45.375 91.5 52.5 95.625 60 95.625C67.5 95.625 74.625 91.5 78.375 84.9375L79.875 82.3125C80.25 81.375 80.0625 80.25 79.125 79.6875ZM13.3125 114.375H8.25C6.9375 114.375 5.625 113.062 5.625 111.75V93.75C5.625 92.625 4.875 91.875 3.75 91.875C2.625 91.875 1.875 92.625 1.875 93.75V111.75C1.875 115.125 4.875 118.125 8.25 118.125H13.3125C14.4375 118.125 15.1875 117.375 15.1875 116.25C15.1875 115.125 14.4375 114.375 13.3125 114.375ZM26.25 114.375H23.0625C21.9375 114.375 21.1875 115.125 21.1875 116.25C21.1875 117.375 21.9375 118.125 23.0625 118.125H26.25C27.375 118.125 28.125 117.375 28.125 116.25C28.125 115.125 27.375 114.375 26.25 114.375ZM116.25 91.875C115.125 91.875 114.375 92.625 114.375 93.75V111.75C114.375 113.062 113.062 114.375 111.75 114.375H93.75C92.625 114.375 91.875 115.125 91.875 116.25C91.875 117.375 92.625 118.125 93.75 118.125H111.75C115.125 118.125 118.125 115.125 118.125 111.75V93.75C118.125 92.625 117.375 91.875 116.25 91.875ZM111.75 1.875H107.25C106.125 1.875 105.375 2.625 105.375 3.75C105.375 4.875 106.125 5.625 107.25 5.625H111.75C113.062 5.625 114.375 6.9375 114.375 8.25V26.25C114.375 27.375 115.125 28.125 116.25 28.125C117.375 28.125 118.125 27.375 118.125 26.25V8.25C118.125 4.875 115.125 1.875 111.75 1.875ZM93.75 5.625H98.4375C99.5625 5.625 100.312 4.875 100.312 3.75C100.312 2.625 99.5625 1.875 98.4375 1.875H93.75C92.625 1.875 91.875 2.625 91.875 3.75C91.875 4.875 92.625 5.625 93.75 5.625ZM3.75 28.125C4.875 28.125 5.625 27.375 5.625 26.25V8.25C5.625 6.9375 6.9375 5.625 8.25 5.625H26.25C27.375 5.625 28.125 4.875 28.125 3.75C28.125 2.625 27.375 1.875 26.25 1.875H8.25C4.875 1.875 1.875 4.875 1.875 8.25V26.25C1.875 27.375 2.625 28.125 3.75 28.125ZM116.25 73.125H68.8125C67.6875 73.125 66.9375 73.875 66.9375 75C66.9375 76.125 67.6875 76.875 68.8125 76.875H116.25C117.375 76.875 118.125 76.125 118.125 75C118.125 73.875 117.375 73.125 116.25 73.125ZM16.5 76.875H59.8125C60.9375 76.875 61.6875 76.125 61.6875 75C61.6875 73.875 60.9375 73.125 59.8125 73.125H16.5C15.375 73.125 14.625 73.875 14.625 75C14.625 76.125 15.375 76.875 16.5 76.875ZM3.75 76.875H8.0625C9.1875 76.875 9.9375 76.125 9.9375 75C9.9375 73.875 9.1875 73.125 8.0625 73.125H3.75C2.625 73.125 1.875 73.875 1.875 75C1.875 76.125 2.625 76.875 3.75 76.875Z" fill="#1D1B20"/>
<path d="M20.625 11.25C20.625 10.125 19.875 9.375 18.75 9.375H14.0625C11.4375 9.375 9.375 11.4375 9.375 14.0625V18.75C9.375 19.875 10.125 20.625 11.25 20.625C12.375 20.625 13.125 19.875 13.125 18.75V14.0625C13.125 13.6875 13.6875 13.125 14.0625 13.125H18.75C19.875 13.125 20.625 12.375 20.625 11.25ZM108.75 20.625C109.875 20.625 110.625 19.875 110.625 18.75V14.0625C110.625 11.4375 108.562 9.375 105.938 9.375H101.25C100.125 9.375 99.375 10.125 99.375 11.25C99.375 12.375 100.125 13.125 101.25 13.125H105.938C106.312 13.125 106.875 13.6875 106.875 14.0625V18.75C106.875 19.875 107.625 20.625 108.75 20.625ZM105.938 110.625C108.562 110.625 110.625 108.562 110.625 105.938V101.25C110.625 100.125 109.875 99.375 108.75 99.375C107.625 99.375 106.875 100.125 106.875 101.25V105.938C106.875 106.312 106.312 106.875 105.938 106.875H101.25C100.125 106.875 99.375 107.625 99.375 108.75C99.375 109.875 100.125 110.625 101.25 110.625H105.938ZM18.75 106.875H14.0625C13.6875 106.875 13.125 106.312 13.125 105.938V101.25C13.125 100.125 12.375 99.375 11.25 99.375C10.125 99.375 9.375 100.125 9.375 101.25V105.938C9.375 108.562 11.4375 110.625 14.0625 110.625H18.75C19.875 110.625 20.625 109.875 20.625 108.75C20.625 107.625 19.875 106.875 18.75 106.875Z" fill="#1D1B20"/>
</svg>
