<svg width="24" height="24" viewBox="0 0 24 24" fill="none" xmlns="http://www.w3.org/2000/svg">
<mask id="mask0_55676_42263" style="mask-type:alpha" maskUnits="userSpaceOnUse" x="0" y="0" width="24" height="24">
<rect width="24" height="24" fill="#D9D9D9"/>
</mask>
<g mask="url(#mask0_55676_42263)">
<path d="M12.0535 4.33371C13.8201 4.33371 15.4844 4.71522 17.0464 5.47826C18.6084 6.24131 19.9049 7.34421 20.9361 8.78696C21.0904 8.99349 21.1397 9.18099 21.0839 9.34946C21.0281 9.51794 20.9314 9.65798 20.7937 9.76958C20.656 9.87175 20.4993 9.91631 20.3236 9.90328C20.1478 9.89023 20.0006 9.79349 19.8817 9.61306C19.0027 8.34132 17.8683 7.3714 16.4785 6.70328C15.0886 6.03516 13.6136 5.6964 12.0535 5.68698C10.4933 5.67755 9.02613 6.01161 7.65186 6.68916C6.27758 7.36669 5.15674 8.34603 4.28936 9.62718C4.15168 9.83371 3.99026 9.94532 3.80511 9.96198C3.61996 9.97865 3.45855 9.9406 3.32086 9.84783C3.16651 9.74567 3.06742 9.61088 3.02359 9.44348C2.97974 9.2761 3.01724 9.11161 3.13609 8.95001C4.15057 7.48624 5.44405 6.35091 7.01651 5.54403C8.58898 4.73715 10.268 4.33371 12.0535 4.33371ZM12.0535 6.71196C14.3129 6.71196 16.2415 7.47844 17.8393 9.01141C19.4372 10.5444 20.2361 12.4239 20.2361 14.65C20.2361 15.5304 19.9308 16.2757 19.3203 16.8859C18.7098 17.496 17.9654 17.8011 17.0872 17.8011C16.2089 17.8011 15.4562 17.5078 14.829 16.9212C14.2018 16.3346 13.8882 15.6058 13.8882 14.7348C13.8882 14.2225 13.7123 13.7882 13.3605 13.4321C13.0087 13.0759 12.5777 12.8978 12.0676 12.8978C11.5575 12.8978 11.1265 13.0759 10.7747 13.4321C10.4229 13.7882 10.247 14.2225 10.247 14.7348C10.247 16.3232 10.6979 17.6591 11.5997 18.7424C12.5015 19.8257 13.7814 20.5605 15.4394 20.9468C15.6365 20.9873 15.7694 21.0848 15.8383 21.2391C15.9071 21.3935 15.9202 21.5562 15.8774 21.7272C15.8347 21.8815 15.7468 22.0169 15.6138 22.1332C15.4808 22.2495 15.297 22.2863 15.0622 22.2435C13.1404 21.8384 11.6319 20.9594 10.5366 19.6065C9.44133 18.2536 8.89369 16.6297 8.89369 14.7348C8.89369 13.8449 9.20311 13.0907 9.82196 12.4723C10.4408 11.8538 11.1893 11.5445 12.0676 11.5445C12.9459 11.5445 13.6944 11.8444 14.3133 12.444C14.9321 13.0436 15.2415 13.779 15.2415 14.65C15.2415 15.1529 15.4216 15.5824 15.7817 15.9386C16.1419 16.2947 16.577 16.4728 17.0872 16.4728C17.5973 16.4728 18.0265 16.2947 18.3747 15.9386C18.7228 15.5824 18.8969 15.1529 18.8969 14.65C18.8969 12.792 18.2286 11.2259 16.892 9.95163C15.5555 8.67735 13.9462 8.04021 12.0643 8.04021C10.1825 8.04021 8.58029 8.68912 7.25784 9.98696C5.93537 11.2848 5.27414 12.8638 5.27414 14.7239C5.27414 15.2935 5.314 15.8594 5.39371 16.4217C5.47343 16.984 5.62198 17.5757 5.83936 18.1967C5.9082 18.4032 5.90639 18.586 5.83394 18.7451C5.76147 18.9042 5.63973 19.0181 5.46871 19.087C5.27885 19.1558 5.10257 19.1516 4.93989 19.0745C4.7772 18.9973 4.65202 18.8543 4.56434 18.6456C4.35202 18.0993 4.1917 17.5005 4.08336 16.8495C3.97503 16.1984 3.92086 15.4935 3.92086 14.7348C3.92086 12.4804 4.71325 10.5797 6.29804 9.03258C7.88282 7.48548 9.8013 6.71196 12.0535 6.71196ZM12.0676 1.91196C13.1531 1.91196 14.2089 2.04112 15.235 2.29946C16.2611 2.55779 17.2538 2.93333 18.2133 3.42608C18.4198 3.53768 18.5426 3.67772 18.5817 3.84621C18.6209 4.01469 18.606 4.17611 18.5372 4.33046C18.4589 4.48481 18.3379 4.60238 18.1741 4.68318C18.0104 4.76397 17.8263 4.74856 17.622 4.63698C16.7575 4.17755 15.8567 3.83171 14.9198 3.59948C13.9828 3.36723 13.0321 3.25111 12.0676 3.25111C11.1009 3.25111 10.1486 3.36361 9.21054 3.58861C8.27249 3.81361 7.37846 4.16306 6.52846 4.63698C6.33861 4.74856 6.15111 4.78117 5.96596 4.73481C5.78081 4.68842 5.64078 4.57972 5.54586 4.40871C5.46976 4.25654 5.4578 4.09331 5.50999 3.91903C5.56215 3.74475 5.67375 3.60652 5.84476 3.50436C6.79695 2.95726 7.80021 2.55508 8.85456 2.29783C9.90891 2.04058 10.9799 1.91196 12.0676 1.91196ZM12.0676 9.12283C13.627 9.12283 14.9651 9.6578 16.0817 10.7277C17.1984 11.7976 17.7567 13.1051 17.7567 14.65C17.7567 14.866 17.6991 15.0433 17.5839 15.1821C17.4687 15.3208 17.3031 15.3902 17.0872 15.3902C16.8785 15.3902 16.7123 15.3208 16.5888 15.1821C16.4652 15.0433 16.4035 14.866 16.4035 14.65C16.4035 13.4754 15.9786 12.4837 15.129 11.675C14.2794 10.8663 13.2589 10.462 12.0676 10.462C10.8669 10.462 9.84768 10.8757 9.01001 11.7033C8.17233 12.5308 7.75349 13.5413 7.75349 14.7348C7.75349 16.0094 7.95856 17.1152 8.36871 18.0522C8.77885 18.9891 9.4292 19.9279 10.3198 20.8685C10.4575 21.0062 10.5287 21.1629 10.5334 21.3386C10.5381 21.5143 10.4857 21.6663 10.3763 21.7946C10.2386 21.9511 10.0654 22.0223 9.85674 22.0082C9.64804 21.994 9.47485 21.9181 9.33716 21.7804C8.35383 20.7659 7.62086 19.6977 7.13826 18.5756C6.65565 17.4535 6.41434 16.1732 6.41434 14.7348C6.41434 13.171 6.96434 11.8447 8.06434 10.756C9.16434 9.66721 10.4988 9.12283 12.0676 9.12283ZM12.0567 13.9804C12.2633 13.9804 12.4265 14.0493 12.5464 14.187C12.6663 14.3246 12.7263 14.4884 12.7263 14.6783C12.7263 16.0036 13.1622 17.0263 14.0339 17.7462C14.9056 18.4661 15.9556 18.8261 17.1839 18.8261C17.3216 18.8261 17.4892 18.813 17.6866 18.787C17.8841 18.7609 18.0781 18.7406 18.2687 18.7261C18.4564 18.7116 18.6185 18.756 18.7551 18.8593C18.8917 18.9625 18.9673 19.108 18.9818 19.2957C18.9962 19.4855 18.9524 19.6375 18.8502 19.7517C18.7481 19.8658 18.6209 19.9489 18.4687 20.0011C18.2064 20.0844 17.958 20.135 17.7236 20.1527C17.4892 20.1705 17.3093 20.1794 17.1839 20.1794C15.5969 20.1794 14.2341 19.6911 13.0953 18.7147C11.9565 17.7383 11.3872 16.3928 11.3872 14.6783C11.3872 14.4884 11.4471 14.3246 11.5671 14.187C11.687 14.0493 11.8502 13.9804 12.0567 13.9804Z" fill="#1C1B1F"/>
</g>
</svg>
