<svg width="24" height="24" viewBox="0 0 24 24" fill="none" xmlns="http://www.w3.org/2000/svg">
<path d="M17 21C15.9 21 14.9583 20.6083 14.175 19.825C13.3917 19.0417 13 18.1 13 17C13 15.9 13.3917 14.9583 14.175 14.175C14.9583 13.3917 15.9 13 17 13C18.1 13 19.0417 13.3917 19.825 14.175C20.6083 14.9583 21 15.9 21 17C21 18.1 20.6083 19.0417 19.825 19.825C19.0417 20.6083 18.1 21 17 21ZM17 19C17.55 19 18.0208 18.8042 18.4125 18.4125C18.8042 18.0208 19 17.55 19 17C19 16.45 18.8042 15.9792 18.4125 15.5875C18.0208 15.1958 17.55 15 17 15C16.45 15 15.9792 15.1958 15.5875 15.5875C15.1958 15.9792 15 16.45 15 17C15 17.55 15.1958 18.0208 15.5875 18.4125C15.9792 18.8042 16.45 19 17 19ZM7 18C5.9 18 4.95833 17.6083 4.175 16.825C3.39167 16.0417 3 15.1 3 14C3 12.9 3.39167 11.9583 4.175 11.175C4.95833 10.3917 5.9 10 7 10C8.1 10 9.04167 10.3917 9.825 11.175C10.6083 11.9583 11 12.9 11 14C11 15.1 10.6083 16.0417 9.825 16.825C9.04167 17.6083 8.1 18 7 18ZM7 16C7.55 16 8.02083 15.8042 8.4125 15.4125C8.80417 15.0208 9 14.55 9 14C9 13.45 8.80417 12.9792 8.4125 12.5875C8.02083 12.1958 7.55 12 7 12C6.45 12 5.97917 12.1958 5.5875 12.5875C5.19583 12.9792 5 13.45 5 14C5 14.55 5.19583 15.0208 5.5875 15.4125C5.97917 15.8042 6.45 16 7 16ZM11 10C9.9 10 8.95833 9.60833 8.175 8.825C7.39167 8.04167 7 7.1 7 6C7 4.9 7.39167 3.95833 8.175 3.175C8.95833 2.39167 9.9 2 11 2C12.1 2 13.0417 2.39167 13.825 3.175C14.6083 3.95833 15 4.9 15 6C15 7.1 14.6083 8.04167 13.825 8.825C13.0417 9.60833 12.1 10 11 10ZM11 8C11.55 8 12.0208 7.80417 12.4125 7.4125C12.8042 7.02083 13 6.55 13 6C13 5.45 12.8042 4.97917 12.4125 4.5875C12.0208 4.19583 11.55 4 11 4C10.45 4 9.97917 4.19583 9.5875 4.5875C9.19583 4.97917 9 5.45 9 6C9 6.55 9.19583 7.02083 9.5875 7.4125C9.97917 7.80417 10.45 8 11 8Z" fill="#1B1B20"/>
</svg>
