<svg width="32" height="32" viewBox="0 0 32 32" fill="none" xmlns="http://www.w3.org/2000/svg">
<rect width="32" height="32" rx="16" fill="#CECED1"/>
<path d="M12.0007 25.3307H20.0007C20.5311 25.3307 21.0398 25.12 21.4149 24.745C21.79 24.3699 22.0007 23.8612 22.0007 23.3307V8.66408C22.0007 8.13365 21.79 7.62494 21.4149 7.24987C21.0398 6.8748 20.5311 6.66408 20.0007 6.66408H12.0007C11.4702 6.66408 10.9615 6.8748 10.5865 7.24987C10.2114 7.62494 10.0007 8.13365 10.0007 8.66408V23.3307C10.0007 23.8612 10.2114 24.3699 10.5865 24.745C10.9615 25.12 11.4702 25.3307 12.0007 25.3307ZM11.334 8.66408C11.334 8.48727 11.4042 8.3177 11.5293 8.19268C11.6543 8.06765 11.8239 7.99742 12.0007 7.99742H20.0007C20.1775 7.99742 20.3471 8.06765 20.4721 8.19268C20.5971 8.3177 20.6673 8.48727 20.6673 8.66408V23.3307C20.6673 23.5076 20.5971 23.6771 20.4721 23.8022C20.3471 23.9272 20.1775 23.9974 20.0007 23.9974H12.0007C11.8239 23.9974 11.6543 23.9272 11.5293 23.8022C11.4042 23.6771 11.334 23.5076 11.334 23.3307V8.66408ZM15.0007 21.6641C15.0007 21.4663 15.0593 21.273 15.1692 21.1085C15.2791 20.9441 15.4353 20.8159 15.618 20.7402C15.8007 20.6645 16.0018 20.6447 16.1958 20.6833C16.3897 20.7219 16.5679 20.8171 16.7078 20.957C16.8476 21.0968 16.9429 21.275 16.9815 21.469C17.02 21.663 17.0002 21.864 16.9246 22.0468C16.8489 22.2295 16.7207 22.3857 16.5562 22.4956C16.3918 22.6054 16.1985 22.6641 16.0007 22.6641C15.7355 22.6641 15.4811 22.5587 15.2936 22.3712C15.106 22.1837 15.0007 21.9293 15.0007 21.6641Z" fill="#1C1C1F"/>
</svg>
