<svg width="24" height="24" viewBox="0 0 24 24" fill="none" xmlns="http://www.w3.org/2000/svg">
<path d="M5.6498 10.025L7.5998 10.85C7.83314 10.3833 8.0748 9.93332 8.3248 9.49998C8.5748 9.06665 8.8498 8.63332 9.1498 8.19998L7.7498 7.92498L5.6498 10.025ZM9.1998 12.1L12.0498 14.925C12.7498 14.6583 13.4998 14.25 14.2998 13.7C15.0998 13.15 15.8498 12.525 16.5498 11.825C17.7165 10.6583 18.629 9.36248 19.2873 7.93748C19.9456 6.51248 20.2331 5.19998 20.1498 3.99998C18.9498 3.91665 17.6331 4.20415 16.1998 4.86248C14.7665 5.52082 13.4665 6.43332 12.2998 7.59998C11.5998 8.29998 10.9748 9.04998 10.4248 9.84998C9.8748 10.65 9.46647 11.4 9.1998 12.1ZM13.6498 10.475C13.2665 10.0917 13.0748 9.62082 13.0748 9.06248C13.0748 8.50415 13.2665 8.03332 13.6498 7.64998C14.0331 7.26665 14.5081 7.07498 15.0748 7.07498C15.6415 7.07498 16.1165 7.26665 16.4998 7.64998C16.8831 8.03332 17.0748 8.50415 17.0748 9.06248C17.0748 9.62082 16.8831 10.0917 16.4998 10.475C16.1165 10.8583 15.6415 11.05 15.0748 11.05C14.5081 11.05 14.0331 10.8583 13.6498 10.475ZM14.1248 18.5L16.2248 16.4L15.9498 15C15.5165 15.3 15.0831 15.5708 14.6498 15.8125C14.2165 16.0541 13.7665 16.2916 13.2998 16.525L14.1248 18.5ZM21.9498 2.17498C22.2665 4.19165 22.0706 6.15415 21.3623 8.06248C20.654 9.97082 19.4331 11.7916 17.6998 13.525L18.1998 16C18.2665 16.3333 18.2498 16.6583 18.1498 16.975C18.0498 17.2916 17.8831 17.5667 17.6498 17.8L13.4498 22L11.3498 17.075L7.0748 12.8L2.1498 10.7L6.3248 6.49998C6.55814 6.26665 6.8373 6.09998 7.1623 5.99998C7.4873 5.89998 7.81647 5.88332 8.1498 5.94998L10.6248 6.44998C12.3581 4.71665 14.1748 3.49165 16.0748 2.77498C17.9748 2.05832 19.9331 1.85832 21.9498 2.17498ZM3.9248 15.975C4.50814 15.3917 5.22064 15.0958 6.0623 15.0875C6.90397 15.0792 7.61647 15.3666 8.1998 15.95C8.78314 16.5333 9.07064 17.2458 9.0623 18.0875C9.05397 18.9291 8.75814 19.6416 8.1748 20.225C7.75814 20.6416 7.0623 21 6.0873 21.3C5.1123 21.6 3.76647 21.8666 2.0498 22.1C2.28314 20.3833 2.5498 19.0375 2.8498 18.0625C3.1498 17.0875 3.50814 16.3917 3.9248 15.975ZM5.3498 17.375C5.18314 17.5416 5.01647 17.8458 4.8498 18.2875C4.68314 18.7292 4.56647 19.175 4.4998 19.625C4.9498 19.5583 5.39564 19.4458 5.8373 19.2875C6.27897 19.1292 6.58314 18.9667 6.7498 18.8C6.9498 18.6 7.05814 18.3583 7.0748 18.075C7.09147 17.7916 6.9998 17.55 6.7998 17.35C6.5998 17.15 6.35814 17.0542 6.0748 17.0625C5.79147 17.0708 5.5498 17.175 5.3498 17.375Z" fill="#1C1B1F"/>
</svg>
