<svg width="14" height="14" viewBox="0 0 14 14" fill="none" xmlns="http://www.w3.org/2000/svg">
<g clip-path="url(#clip0_1186_15412)">
<circle cx="7" cy="7" r="7" fill="black"/>
<g clip-path="url(#clip1_1186_15412)">
<path d="M3.84996 9.45C3.65746 9.45 3.49267 9.38145 3.35559 9.24437C3.21851 9.10729 3.14996 8.9425 3.14996 8.75V4.55C3.14996 4.3575 3.21851 4.19271 3.35559 4.05562C3.49267 3.91854 3.65746 3.85 3.84996 3.85H4.95246L5.59996 3.15H7.69996V3.85H5.90621L5.26746 4.55H3.84996V8.75H9.44996V5.6H10.15V8.75C10.15 8.9425 10.0814 9.10729 9.94434 9.24437C9.80725 9.38145 9.64246 9.45 9.44996 9.45H3.84996ZM9.44996 4.55V3.85H8.74996V3.15H9.44996V2.45H10.15V3.15H10.85V3.85H10.15V4.55H9.44996ZM6.64996 8.225C7.08746 8.225 7.45934 8.07187 7.76559 7.76562C8.07184 7.45937 8.22496 7.0875 8.22496 6.65C8.22496 6.2125 8.07184 5.84062 7.76559 5.53437C7.45934 5.22812 7.08746 5.075 6.64996 5.075C6.21246 5.075 5.84059 5.22812 5.53434 5.53437C5.22809 5.84062 5.07496 6.2125 5.07496 6.65C5.07496 7.0875 5.22809 7.45937 5.53434 7.76562C5.84059 8.07187 6.21246 8.225 6.64996 8.225ZM6.64996 7.525C6.40496 7.525 6.19788 7.44041 6.02871 7.27125C5.85955 7.10208 5.77496 6.895 5.77496 6.65C5.77496 6.405 5.85955 6.19791 6.02871 6.02875C6.19788 5.85958 6.40496 5.775 6.64996 5.775C6.89496 5.775 7.10205 5.85958 7.27121 6.02875C7.44038 6.19791 7.52496 6.405 7.52496 6.65C7.52496 6.895 7.44038 7.10208 7.27121 7.27125C7.10205 7.44041 6.89496 7.525 6.64996 7.525Z" fill="white"/>
</g>
</g>
<defs>
<clipPath id="clip0_1186_15412">
<rect width="14" height="14" rx="7" fill="white"/>
</clipPath>
<clipPath id="clip1_1186_15412">
<rect width="8.4" height="8.4" fill="white" transform="translate(2.79999 2.8)"/>
</clipPath>
</defs>
</svg>
