<svg width="20" height="20" viewBox="0 0 20 20" fill="none" xmlns="http://www.w3.org/2000/svg">
<path d="M10 20C8.61667 20 7.31667 19.7375 6.1 19.2125C4.88333 18.6875 3.825 17.975 2.925 17.075C2.025 16.175 1.3125 15.1167 0.7875 13.9C0.2625 12.6833 0 11.3833 0 10C0 8.61667 0.2625 7.31667 0.7875 6.1C1.3125 4.88333 2.025 3.825 2.925 2.925C3.825 2.025 4.88333 1.3125 6.1 0.7875C7.31667 0.2625 8.61667 0 10 0C11.3833 0 12.6833 0.2625 13.9 0.7875C15.1167 1.3125 16.175 2.025 17.075 2.925C17.975 3.825 18.6875 4.88333 19.2125 6.1C19.7375 7.31667 20 8.61667 20 10C20 11.3833 19.7375 12.6833 19.2125 13.9C18.6875 15.1167 17.975 16.175 17.075 17.075C16.175 17.975 15.1167 18.6875 13.9 19.2125C12.6833 19.7375 11.3833 20 10 20ZM10 18C12.2333 18 14.125 17.225 15.675 15.675C17.225 14.125 18 12.2333 18 10C18 7.76667 17.225 5.875 15.675 4.325C14.125 2.775 12.2333 2 10 2C7.76667 2 5.875 2.775 4.325 4.325C2.775 5.875 2 7.76667 2 10C2 12.2333 2.775 14.125 4.325 15.675C5.875 17.225 7.76667 18 10 18ZM7 15H11C11.55 15 12.0208 14.8042 12.4125 14.4125C12.8042 14.0208 13 13.55 13 13V11.5C13 11.0667 12.8583 10.7083 12.575 10.425C12.2917 10.1417 11.9333 10 11.5 10C11.9333 10 12.2917 9.85833 12.575 9.575C12.8583 9.29167 13 8.93333 13 8.5V7C13 6.45 12.8042 5.97917 12.4125 5.5875C12.0208 5.19583 11.55 5 11 5H7V7H11V9H9V11H11V13H7V15Z" fill="#2A3FFF"/>
</svg>
