<svg width="24" height="24" viewBox="0 0 24 24" fill="none" xmlns="http://www.w3.org/2000/svg">
<path d="M15 20C12.7667 20 10.875 19.225 9.325 17.675C7.775 16.125 7 14.2333 7 12C7 9.76667 7.775 7.875 9.325 6.325C10.875 4.775 12.7667 4 15 4C17.2333 4 19.125 4.775 20.675 6.325C22.225 7.875 23 9.76667 23 12C23 14.2333 22.225 16.125 20.675 17.675C19.125 19.225 17.2333 20 15 20ZM7 19.75C5.23333 19.2833 3.79167 18.3333 2.675 16.9C1.55833 15.4667 1 13.8333 1 12C1 10.1667 1.55833 8.53333 2.675 7.1C3.79167 5.66667 5.23333 4.71667 7 4.25V6.35C5.8 6.76667 4.83333 7.49167 4.1 8.525C3.36667 9.55833 3 10.7167 3 12C3 13.2833 3.36667 14.4417 4.1 15.475C4.83333 16.5083 5.8 17.2333 7 17.65V19.75ZM15 18C16.6667 18 18.0833 17.4167 19.25 16.25C20.4167 15.0833 21 13.6667 21 12C21 10.3333 20.4167 8.91667 19.25 7.75C18.0833 6.58333 16.6667 6 15 6C13.3333 6 11.9167 6.58333 10.75 7.75C9.58333 8.91667 9 10.3333 9 12C9 13.6667 9.58333 15.0833 10.75 16.25C11.9167 17.4167 13.3333 18 15 18Z" fill="#1C1B1F"/>
</svg>
