<svg width="24" height="24" viewBox="0 0 24 24" fill="none" xmlns="http://www.w3.org/2000/svg">
<path fill-rule="evenodd" clip-rule="evenodd" d="M8 11.0021C8 8.24342 10.236 6.00645 12.9946 6.00415C15.7556 6.00185 17.9963 8.23871 17.9976 10.9997C17.9989 13.7609 15.76 16 12.9988 16C10.2385 16 8 13.7623 8 11.0021ZM12.9988 14C11.3426 14 10 12.6573 10 11.0021C10 9.3478 11.3411 8.00553 12.9963 8.00415C14.6529 8.00277 15.9968 9.34498 15.9976 11.0006C15.9984 12.6564 14.6555 14 12.9988 14Z" fill="#1B1B20"/>
<path fill-rule="evenodd" clip-rule="evenodd" d="M2 18C2 19.1046 2.89543 20 4 20H5V21C5 21.5523 5.44772 22 6 22H7.99952C8.55199 22 8.99979 21.552 8.99952 20.9995L8.99904 20H15V21C15 21.5523 15.4477 22 16 22H17.9995C18.552 22 18.9998 21.552 18.9995 20.9995L18.999 20H19.9989C21.1039 20 21.9995 19.1039 21.9989 17.999L21.9915 4.00046C21.9909 2.89572 21.0947 2.0007 19.99 2.00153L3.9985 2.01354C2.89452 2.01437 2 2.90955 2 4.01354V18ZM19.9915 4.00153L4 4.01354V7.00084L4.99925 7.00043C5.55102 7.00042 5.99851 7.44744 5.99904 7.99926C5.99957 8.55167 5.5516 8.99979 4.99925 9.00001H4V13.0008L4.99925 13.0004C5.55102 13.0004 5.99851 13.4474 5.99904 13.9993C5.99957 14.5517 5.5516 14.9998 4.99925 15H4V18H19.9989L19.9915 4.00153Z" fill="#1B1B20"/>
</svg>
